<svg width="1200" height="675" viewBox="0 0 1200 675" fill="none" xmlns="http://www.w3.org/2000/svg">
  <rect width="1200" height="675" fill="#F4F7FC"/>
  <rect x="96" y="92" width="1008" height="491" rx="26" fill="#FFFFFF" stroke="#DCE3EE" stroke-width="4"/>
  <rect x="152" y="140" width="440" height="380" rx="18" fill="#F6F9FE" stroke="#DEE6F3"/>
  <rect x="190" y="440" width="56" height="48" rx="8" fill="#8CB0E6"/>
  <rect x="264" y="400" width="56" height="88" rx="8" fill="#6F98DC"/>
  <rect x="338" y="360" width="56" height="128" rx="8" fill="#4F7FCF"/>
  <rect x="412" y="316" width="56" height="172" rx="8" fill="#1C4FD7"/>
  <polyline points="200,318 278,292 352,255 428,218 504,184" fill="none" stroke="#1C4FD7" stroke-width="10" stroke-linecap="round"/>
  <polygon points="488,176 534,168 510,208" fill="#1C4FD7"/>
  <rect x="632" y="140" width="416" height="180" rx="18" fill="#F6F9FE" stroke="#DEE6F3"/>
  <text x="682" y="220" fill="#1E3357" font-family="Arial, sans-serif" font-size="54" font-weight="700">30%</text>
  <text x="682" y="264" fill="#5E7396" font-family="Arial, sans-serif" font-size="28">Cost Reduction</text>
  <rect x="632" y="340" width="416" height="180" rx="18" fill="#F6F9FE" stroke="#DEE6F3"/>
  <circle cx="704" cy="430" r="38" fill="#E7EEFA"/>
  <text x="690" y="444" fill="#1C4FD7" font-family="Arial, sans-serif" font-size="34" font-weight="700">$</text>
  <text x="760" y="422" fill="#1E3357" font-family="Arial, sans-serif" font-size="32" font-weight="700">Budget</text>
  <text x="760" y="464" fill="#5E7396" font-family="Arial, sans-serif" font-size="24">Governance</text>
</svg>