<svg width="1200" height="675" viewBox="0 0 1200 675" fill="none" xmlns="http://www.w3.org/2000/svg">
  <rect width="1200" height="675" fill="#F4F7FC"/>
  <rect x="96" y="92" width="1008" height="491" rx="26" fill="#FFFFFF" stroke="#DCE3EE" stroke-width="4"/>
  <rect x="150" y="144" width="900" height="80" rx="14" fill="#ECF2FA"/>
  <rect x="188" y="174" width="180" height="18" rx="9" fill="#9DB5D8"/>
  <rect x="150" y="252" width="420" height="288" rx="18" fill="#F6F9FE" stroke="#DEE6F3"/>
  <path d="M360 316C360 279 390 250 427 250C464 250 494 279 494 316V348H360V316Z" fill="#DCE7F8"/>
  <rect x="330" y="348" width="194" height="134" rx="16" fill="#1C4FD7"/>
  <circle cx="427" cy="402" r="18" fill="#FFFFFF"/>
  <rect x="419" y="418" width="16" height="34" rx="8" fill="#FFFFFF"/>
  <rect x="608" y="252" width="442" height="132" rx="18" fill="#F6F9FE" stroke="#DEE6F3"/>
  <text x="650" y="318" fill="#1E3357" font-family="Arial, sans-serif" font-size="34" font-weight="700">NCA ECC Aligned</text>
  <rect x="608" y="408" width="442" height="132" rx="18" fill="#F6F9FE" stroke="#DEE6F3"/>
  <text x="650" y="474" fill="#1E3357" font-family="Arial, sans-serif" font-size="32" font-weight="700">IAM Governance</text>
</svg>